<?xml version="1.0" encoding="UTF-8"?>
<!DOCTYPE svg PUBLIC "-//W3C//DTD SVG 1.1//EN" "http://www.w3.org/Graphics/SVG/1.1/DTD/svg11.dtd">
<svg xmlns="http://www.w3.org/2000/svg" version="1.1" width="500px" height="500px" style="shape-rendering:geometricPrecision; text-rendering:geometricPrecision; image-rendering:optimizeQuality; fill-rule:evenodd; clip-rule:evenodd" xmlns:xlink="http://www.w3.org/1999/xlink">
<g><path style="opacity:1" fill="#000000" d="M -0.5,-0.5 C 166.167,-0.5 332.833,-0.5 499.5,-0.5C 499.5,166.167 499.5,332.833 499.5,499.5C 332.833,499.5 166.167,499.5 -0.5,499.5C -0.5,332.833 -0.5,166.167 -0.5,-0.5 Z"/></g>
<g><path style="opacity:1" fill="#fbfbfb" d="M 147.5,76.5 C 165.395,75.0197 177.228,82.6864 183,99.5C 185.271,116.962 178.271,128.962 162,135.5C 161.167,191.17 161.333,246.836 162.5,302.5C 183.121,311.856 188.621,326.856 179,347.5C 167.336,362.571 153.169,365.404 136.5,356C 124.322,345.456 121.156,332.622 127,317.5C 131.199,309.486 137.699,304.486 146.5,302.5C 146.833,246.829 146.5,191.163 145.5,135.5C 127.252,127.665 120.752,113.998 126,94.5C 130.914,85.748 138.081,79.748 147.5,76.5 Z"/></g>
<g><path style="opacity:1" fill="#fbfbfb" d="M 338.5,76.5 C 364.185,75.6835 376.019,88.0169 374,113.5C 371.408,125.091 364.408,132.424 353,135.5C 352.167,191.17 352.333,246.836 353.5,302.5C 371.986,309.808 378.486,323.141 373,342.5C 365.77,356.697 354.27,362.864 338.5,361C 320.899,354.64 313.399,342.14 316,323.5C 319.422,312.577 326.589,305.577 337.5,302.5C 337.833,246.829 337.5,191.163 336.5,135.5C 318.638,127.782 312.138,114.449 317,95.5C 321.585,86.0728 328.751,79.7395 338.5,76.5 Z"/></g>
<g><path style="opacity:1" fill="#060606" d="M 149.5,91.5 C 166.163,91.8258 171.663,99.8258 166,115.5C 157.335,123.793 149.002,123.459 141,114.5C 136.609,104.172 139.443,96.5056 149.5,91.5 Z"/></g>
<g><path style="opacity:1" fill="#040404" d="M 340.5,91.5 C 356.428,91.5864 362.261,99.253 358,114.5C 349.931,123.305 341.597,123.638 333,115.5C 327.802,104.958 330.302,96.9577 340.5,91.5 Z"/></g>
<g><path style="opacity:1" fill="#fdfdfd" d="M 242.5,363.5 C 243.167,339.502 243.5,315.336 243.5,291C 243.5,266.491 242.833,242.324 241.5,218.5C 225.46,212.442 218.627,200.775 221,183.5C 230.385,160.52 246.218,154.687 268.5,166C 281.838,178.03 284.005,191.863 275,207.5C 270.747,213.408 265.08,217.408 258,219.5C 257.333,267.5 257.333,315.5 258,363.5C 269.731,366.899 277.064,374.565 280,386.5C 280.68,411.487 268.513,423.32 243.5,422C 226.206,415.919 218.706,403.752 221,385.5C 224.317,374.35 231.484,367.017 242.5,363.5 Z"/></g>
<g><path style="opacity:1" fill="#a3a3a3" d="M 241.5,218.5 C 242.833,242.324 243.5,266.491 243.5,291C 243.5,315.336 243.167,339.502 242.5,363.5C 242.828,315.095 242.495,266.761 241.5,218.5 Z"/></g>
<g><path style="opacity:1" fill="#060606" d="M 148.5,316.5 C 164.413,315.899 170.58,323.233 167,338.5C 159.31,347.976 150.977,348.643 142,340.5C 136.257,330.328 138.423,322.328 148.5,316.5 Z"/></g>
<g><path style="opacity:1" fill="#030303" d="M 339.5,316.5 C 354.675,314.841 361.175,321.507 359,336.5C 354.936,344.61 348.436,347.443 339.5,345C 331.66,340.849 328.827,334.349 331,325.5C 333.362,321.973 336.196,318.973 339.5,316.5 Z"/></g>
</svg>
